<svg width="48" height="48" viewBox="0 0 48 48" fill="none" xmlns="http://www.w3.org/2000/svg">
<g clip-path="url(#clip0_201_680)">
<path d="M37.5625 3.19995H10.4375C6.32988 3.19995 3 6.61522 3 10.8282V37.5717C3 41.7847 6.32988 45.2 10.4375 45.2H37.5625C41.6701 45.2 45 41.7847 45 37.5717V10.8282C45 6.61522 41.6701 3.19995 37.5625 3.19995Z" fill="#00005B"/>
<path d="M19.5065 28.3282H12.9981L11.6738 32.5553C11.6558 32.6322 11.6122 32.7003 11.5505 32.7478C11.4887 32.7952 11.4128 32.8191 11.3357 32.8153H8.03926C7.85127 32.8153 7.78553 32.7094 7.84204 32.4975L13.4771 15.9213C13.5334 15.748 13.5897 15.5505 13.6461 15.3289C13.7321 14.9535 13.7782 14.5696 13.7836 14.184C13.7798 14.1566 13.7823 14.1286 13.7908 14.1022C13.7994 14.0759 13.8138 14.052 13.8329 14.0324C13.8521 14.0127 13.8754 13.9979 13.9011 13.9892C13.9267 13.9804 13.954 13.9778 13.9808 13.9817H18.4607C18.5918 13.9817 18.667 14.0299 18.6861 14.1262L25.057 32.5263C25.1133 32.7192 25.057 32.8155 24.888 32.8153H21.2252C21.1623 32.8225 21.099 32.8059 21.0471 32.7687C20.9953 32.7315 20.9584 32.6761 20.9435 32.6131L19.5065 28.3282ZM14.0124 24.764H18.4641C18.3514 24.3788 18.2199 23.9454 18.0696 23.4636C17.919 22.9822 17.7593 22.4669 17.5906 21.9175C17.4216 21.3685 17.2525 20.8195 17.0835 20.2704C16.9145 19.7214 16.7595 19.1916 16.6185 18.681C16.4777 18.1708 16.3509 17.7037 16.2382 17.2795H16.21C16.0515 18.06 15.854 18.8316 15.6184 19.5913C15.3551 20.4582 15.0874 21.3444 14.8154 22.2499C14.5429 23.1556 14.2752 23.9937 14.0124 24.764H14.0124Z" fill="#9999FF"/>
<path d="M38.4964 18.6736V29.6765C38.4964 30.1583 38.5011 30.5869 38.5105 30.9624C38.5198 31.3381 38.5385 31.6656 38.5669 31.945C38.5951 32.2245 38.6184 32.3918 38.6374 32.5841C38.6558 32.7385 38.5903 32.8153 38.4401 32.8153H35.4254C35.3554 32.8229 35.2849 32.8074 35.224 32.771C35.1632 32.7346 35.1153 32.6793 35.0873 32.613C35.0468 32.4656 35.0138 32.3161 34.9887 32.1651C34.9622 32.0405 34.948 31.9135 34.9464 31.786C34.3794 32.305 33.7051 32.6853 32.9741 32.8986C32.3404 33.0756 31.6869 33.1679 31.0301 33.1731C30.3841 33.1811 29.7414 33.0785 29.1283 32.8697C28.5604 32.6708 28.048 32.3337 27.635 31.8872C27.1866 31.3901 26.85 30.7983 26.6489 30.1533C26.3961 29.3263 26.2771 28.4624 26.2967 27.5959V18.7025C26.2923 18.6711 26.2951 18.6391 26.3049 18.609C26.3147 18.5789 26.3312 18.5515 26.353 18.5291C26.3749 18.5066 26.4016 18.4897 26.4309 18.4797C26.4603 18.4697 26.4915 18.4668 26.5221 18.4713H29.8704C29.901 18.4668 29.9322 18.4697 29.9616 18.4798C29.9909 18.4898 30.0176 18.5067 30.0394 18.5292C30.0613 18.5516 30.0778 18.5789 30.0876 18.609C30.0974 18.6391 30.1002 18.6711 30.0958 18.7025V27.1335C30.0958 27.9237 30.2649 28.545 30.603 28.9974C30.9411 29.4503 31.6218 29.6765 32.4107 29.6765C32.8149 29.6816 33.2165 29.6081 33.594 29.4598C33.9894 29.3168 34.3631 29.1174 34.7042 28.8674V18.6736C34.7042 18.5391 34.7887 18.4713 34.9578 18.4713H38.2992C38.326 18.4674 38.3533 18.47 38.379 18.4788C38.4046 18.4876 38.4279 18.5024 38.447 18.522C38.4662 18.5416 38.4806 18.5655 38.4892 18.5919C38.4977 18.6182 38.5002 18.6462 38.4964 18.6736Z" fill="#9999FF"/>
</g>
<defs>
<clipPath id="clip0_201_680">
<rect width="42" height="42" fill="white" transform="translate(3 3.19995)"/>
</clipPath>
</defs>
</svg>
